<?xml version="1.0" encoding="utf-8"?>
<!-- Generator: Adobe Illustrator 18.0.0, SVG Export Plug-In . SVG Version: 6.00 Build 0)  -->
<!DOCTYPE svg PUBLIC "-//W3C//DTD SVG 1.1//EN" "http://www.w3.org/Graphics/SVG/1.1/DTD/svg11.dtd">
<svg version="1.1" id="Layer_1" xmlns="http://www.w3.org/2000/svg" xmlns:xlink="http://www.w3.org/1999/xlink" x="0px" y="0px"
	 viewBox="0 0 300 300" enable-background="new 0 0 300 300" xml:space="preserve">
<g>
	<g>
		<path fill="#E2E0E2" d="M22.8,57.6h253.8c10.5,0,18.8-8.4,18.8-18.8c0-10.5-8.4-18.8-18.8-18.8H22.8C12.4,19.9,4,28.3,4,38.8
			C4,49.2,12.4,57.6,22.8,57.6z"/>
		<path fill="#E2E0E2" d="M276.7,131.4H22.8c-10.5,0-18.8,8.4-18.8,18.8c0,9.9,8.4,18.8,18.8,18.8h253.8c10.5,0,18.8-8.9,18.8-18.8
			C295.5,139.8,287.2,131.4,276.7,131.4z"/>
		<path fill="#E2E0E2" d="M276.7,242.4H22.8c-10.5,0-18.8,8.4-18.8,18.8c0,10.5,8.4,18.9,18.8,18.9h253.8c10.5,0,18.8-8.4,18.8-18.9
			C295.5,250.8,287.2,242.4,276.7,242.4z"/>
	</g>
</g>
</svg>
