<?xml version="1.0" encoding="utf-8"?>
<!-- Generator: Adobe Illustrator 18.0.0, SVG Export Plug-In . SVG Version: 6.00 Build 0)  -->
<!DOCTYPE svg PUBLIC "-//W3C//DTD SVG 1.1//EN" "http://www.w3.org/Graphics/SVG/1.1/DTD/svg11.dtd">
<svg version="1.1" id="Layer_1" xmlns="http://www.w3.org/2000/svg" xmlns:xlink="http://www.w3.org/1999/xlink" x="0px" y="0px"
	 viewBox="0 0 300 300" enable-background="new 0 0 300 300" xml:space="preserve">
<g id="XMLID_1_">
	<g>
		<path fill="#E2E0E2" d="M196.1,138.2c5.4,0,9.8,5.4,9.8,10.8c0,5.4-4.4,10.8-9.8,10.8h-36v36c0,5.4-5.4,9.8-10.8,9.8
			s-10.8-4.4-10.8-9.8v-36H99.7c-5.4,0-9.8-5.4-9.8-10.8c0-5.4,4.4-10.8,9.8-10.8h38.7V99.5c0-5.4,5.4-9.8,10.8-9.8
			s10.8,4.4,10.8,9.8v38.7H196.1z"/>
		<path fill="#E2E0E2" d="M149.2,14.1c74.4,0,134.9,60.5,134.9,134.9c0,74.4-60.5,134.9-134.9,134.9S14.4,223.4,14.4,149
			C14.4,74.6,74.9,14.1,149.2,14.1z M259.6,149c0-60.9-49.5-110.3-110.4-110.3S38.9,88.1,38.9,149c0,60.9,49.5,110.4,110.4,110.4
			S259.6,209.9,259.6,149z"/>
	</g>
	<g>
	</g>
</g>
</svg>
