<?xml version="1.0" encoding="utf-8"?>
<!-- Generator: Adobe Illustrator 18.0.0, SVG Export Plug-In . SVG Version: 6.00 Build 0)  -->
<!DOCTYPE svg PUBLIC "-//W3C//DTD SVG 1.1//EN" "http://www.w3.org/Graphics/SVG/1.1/DTD/svg11.dtd">
<svg version="1.1" id="Layer_1" xmlns="http://www.w3.org/2000/svg" xmlns:xlink="http://www.w3.org/1999/xlink" x="0px" y="0px"
	 viewBox="0 0 295.9 116.9" enable-background="new 0 0 295.9 116.9" xml:space="preserve">
<g>
	<image overflow="visible" width="487" height="487" xlink:href="45038194EC9A2746.jpg"  transform="matrix(0.24 0 0 0.24 0 0)">
	</image>
</g>
<g>
	<g>
		<g>
			<path d="M134.4,62.2c-1.6-1.1-3.7-1.7-6.1-2.2h-0.1c-2.1-0.4-3.9-1-5.1-1.8s-1.7-1.7-1.8-2.9c0-1.2,0.7-2.4,1.9-3.3
				c1.2-0.9,2.9-1.4,4.9-1.4c2.6,0,4.7,1.3,6.5,2.5c0.3,0.2,0.8,0.1,1-0.2c0.2-0.4,0.1-0.8-0.2-1.1c-1.9-1.2-4.2-2.8-7.3-2.8
				c-2.2,0-4.2,0.6-5.7,1.7c-1.5,1.1-2.5,2.7-2.5,4.5c0,1.8,1,3.2,2.4,4.1c1.5,1,3.4,1.6,5.6,2h0.1c2.3,0.4,4.2,1.1,5.5,1.9
				c1.3,0.9,1.9,1.9,1.9,3.3c0,1.3-0.7,2.6-2,3.5c-1.3,1-3.2,1.6-5.2,1.6c-3.1,0-6.1-1.6-7.8-3.1c-0.3-0.3-0.8-0.2-1.1,0.1
				c-0.2,0.3-0.2,0.8,0.1,1.1c2,1.6,5.1,3.4,8.8,3.4c2.4,0,4.5-0.7,6.1-1.9c1.6-1.2,2.7-2.9,2.7-4.8S135.9,63.2,134.4,62.2z"/>
			<path d="M153.5,49.1c-6.4,0-11.5,5.4-11.5,12.1c0,6.7,5.1,12.1,11.5,12.1c6.4,0,11.4-5.4,11.4-12.1
				C164.9,54.6,159.9,49.1,153.5,49.1z M153.5,71.6c-5.4,0-9.8-4.6-9.8-10.4c0-5.9,4.4-10.4,9.8-10.4c5.2,0,9.7,4.5,9.7,10.4
				C163.2,67,158.7,71.6,153.5,71.6z"/>
			<path d="M190.4,49.5c-0.4,0-0.8,0.4-0.8,0.8v13.4c0,4.4-3.6,7.9-8,8c-4.4,0-7.9-3.6-7.9-8V50.3c0-0.4-0.4-0.8-0.8-0.8
				c-0.4,0-0.8,0.4-0.8,0.8v13.4c0,5.3,4.3,9.6,9.6,9.6c5.3,0,9.7-4.3,9.7-9.6V50.3C191.2,49.9,190.9,49.5,190.4,49.5z"/>
			<path d="M217.8,49.7c-0.4-0.2-0.9,0-1.1,0.4l-8.5,20.3l-8.5-20.3c-0.2-0.4-0.7-0.6-1.1-0.4c-0.4,0.2-0.6,0.7-0.4,1.1l9.2,21.9
				l0,0c0,0,0,0.1,0,0.1c0.1,0.2,0.2,0.3,0.4,0.4c0,0,0,0,0,0c0.1,0,0.2,0,0.3,0c0.1,0,0.2,0,0.3-0.1h0c0.3-0.1,0.4-0.4,0.5-0.7
				l9.2-21.8C218.4,50.4,218.2,49.9,217.8,49.7z"/>
			<path d="M238.2,51.2c0.5,0,0.8-0.4,0.8-0.8c0-0.4-0.3-0.8-0.8-0.8H226H226c-0.4,0-0.8,0.4-0.8,0.8v22.2c0,0.4,0.3,0.8,0.7,0.8
				h0.1h0.1h12.1c0.5,0,0.8-0.4,0.8-0.8c0-0.5-0.3-0.9-0.8-0.9h-11.4v-9.4h10c0.4,0,0.8-0.4,0.8-0.8c0-0.5-0.4-0.9-0.8-0.9h-10v-9.4
				H238.2z"/>
			<path d="M262.1,49.7c-0.4,0-0.8,0.4-0.8,0.8v19.4l-14.4-20c-0.2-0.4-0.8-0.4-1.2-0.2c-0.3,0.2-0.4,0.6-0.3,0.9v21.8
				c0,0.4,0.4,0.8,0.8,0.8c0.4,0,0.8-0.4,0.8-0.8V53l14.3,19.9c0,0.1,0.1,0.1,0.1,0.1c0.2,0.2,0.4,0.3,0.6,0.3
				c0.5,0,0.8-0.4,0.8-0.8V50.5C263,50.1,262.6,49.7,262.1,49.7z"/>
			<path d="M272.6,49.5c-0.4,0-0.8,0.4-0.8,0.8v22.2c0,0.4,0.4,0.8,0.8,0.8c0.5,0,0.8-0.4,0.8-0.8V50.3
				C273.4,49.9,273.1,49.5,272.6,49.5z"/>
			<path d="M296.9,71.8c-0.1-0.4-0.5-0.6-0.9-0.5c0,0-0.2-0.2-0.3-0.6c-0.2-0.5-0.3-1.4-0.3-2.8c0-2.7-1.6-4.4-3.2-5.3
				c-0.1-0.1-0.2-0.1-0.3-0.2c2.3-1.1,3.9-3.4,3.9-6.2c0-3.8-3-6.8-6.8-6.8h-6.6h-0.1h-0.1c-0.4,0-0.7,0.4-0.7,0.8v22.2
				c0,0.4,0.4,0.8,0.8,0.8c0.5,0,0.8-0.4,0.8-0.8v-9.4h5.8c0,0,0.1,0,0.2,0.1c0.4,0.1,1.7,0.4,2.8,1.2c1.1,0.8,1.9,1.9,1.9,3.6
				c0,2,0.2,3.1,0.6,3.9c0.4,0.7,1.1,1.1,1.5,1.1h0.1c0.2,0,0.4,0,0.4,0C296.8,72.7,297,72.2,296.9,71.8z M289.1,61.4h-0.3h-5.7
				V51.2h5.9c2.8,0,5.1,2.3,5.1,5.1C294.1,59.1,291.9,61.4,289.1,61.4z"/>
		</g>
	</g>
</g>
</svg>
